HIERARCHY
ROOT hips
{
	OFFSET -0.003675 0.299928 -0.021708
	CHANNELS 6 Xposition Yposition Zposition Xrotation Yrotation Zrotation
	JOINT LowerBack
	{
		OFFSET 0.000919 0.177588 0.009275
		CHANNELS 3 Xrotation Yrotation Zrotation
		JOINT spine
		{
			OFFSET 0.000919 0.177588 0.009275
			CHANNELS 3 Xrotation Yrotation Zrotation
			JOINT chest
			{
				OFFSET 0.000456 0.100015 0.004638
				CHANNELS 3 Xrotation Yrotation Zrotation
				JOINT neck
				{
					OFFSET 0.000456 0.100015 0.004638
					CHANNELS 3 Xrotation Yrotation Zrotation
					JOINT head
					{
						OFFSET 0.000924 0.155147 0.009274
						CHANNELS 6 Xposition Yposition Zposition Xrotation Yrotation Zrotation
						End Site
						{
							OFFSET 0.000000 0.153400 0.000000
						}
					}
				}
				JOINT shoulder.L
				{
					OFFSET 0.019937 0.078966 0.057518
					CHANNELS 6 Xposition Yposition Zposition Yrotation Xrotation Zrotation
					JOINT upper_arm.L
					{
						OFFSET 0.177024 -0.020465 -0.095062
						CHANNELS 6 Xposition Yposition Zposition Xrotation Yrotation Zrotation
						JOINT forearm.L
						{
							OFFSET 0.247100 -0.135500 -0.061800
							CHANNELS 3 Xrotation Yrotation Zrotation
							JOINT hand.L
							{
								OFFSET 0.217000 -0.143000 0.039300
								CHANNELS 3 Xrotation Yrotation Zrotation
								JOINT palm.01.L
								{
									OFFSET 0.021770 -0.038291 0.012954
									CHANNELS 6 Xposition Yposition Zposition Yrotation Xrotation Zrotation
									JOINT f_index.01.L
									{
										OFFSET 0.053215 -0.044137 0.008236
										CHANNELS 3 Xrotation Yrotation Zrotation
										JOINT f_index.02.L
										{
											OFFSET 0.036108 -0.024723 -0.010656
											CHANNELS 3 Xrotation Yrotation Zrotation
											JOINT f_index.03.L
											{
												OFFSET 0.021342 -0.014948 -0.010846
												CHANNELS 3 Xrotation Yrotation Zrotation
												End Site
												{
													OFFSET 0.015600 -0.009860 -0.013421
												}
											}
										}
									}
									JOINT thumb.01.L
									{
										OFFSET -0.009090 -0.002348 -0.024223
										CHANNELS 6 Xposition Yposition Zposition Xrotation Yrotation Zrotation
										JOINT thumb.02.L
										{
											OFFSET 0.019713 -0.035076 -0.011120
											CHANNELS 3 Xrotation Yrotation Zrotation
											JOINT thumb.03.L
											{
												OFFSET 0.024877 -0.021748 -0.005176
												CHANNELS 3 Xrotation Yrotation Zrotation
												End Site
												{
													OFFSET 0.016125 -0.013029 -0.001569
												}
											}
										}
									}
								}
								JOINT palm.02.L
								{
									OFFSET 0.032823 -0.025104 0.012281
									CHANNELS 6 Xposition Yposition Zposition Yrotation Xrotation Zrotation
									JOINT f_middle.01.L
									{
										OFFSET 0.055723 -0.038469 0.008037
										CHANNELS 3 Xrotation Yrotation Zrotation
										JOINT f_middle.02.L
										{
											OFFSET 0.038167 -0.027473 -0.015582
											CHANNELS 3 Xrotation Yrotation Zrotation
											JOINT f_middle.03.L
											{
												OFFSET 0.021707 -0.016587 -0.017037
												CHANNELS 3 Xrotation Yrotation Zrotation
												End Site
												{
													OFFSET 0.014112 -0.010584 -0.014294
												}
											}
										}
									}
								}
								JOINT palm.03.L
								{
									OFFSET 0.039230 -0.011402 0.008390
									CHANNELS 6 Xposition Yposition Zposition Yrotation Xrotation Zrotation
									JOINT f_ring.01.L
									{
										OFFSET 0.061796 -0.031470 0.007910
										CHANNELS 3 Xrotation Yrotation Zrotation
										JOINT f_ring.02.L
										{
											OFFSET 0.033092 -0.023401 -0.019127
											CHANNELS 3 Xrotation Yrotation Zrotation
											JOINT f_ring.03.L
											{
												OFFSET 0.021392 -0.015362 -0.017824
												CHANNELS 3 Xrotation Yrotation Zrotation
												End Site
												{
													OFFSET 0.008670 -0.007297 -0.014686
												}
											}
										}
									}
								}
								JOINT palm.04.L
								{
									OFFSET 0.043417 0.002450 0.002889
									CHANNELS 6 Xposition Yposition Zposition Yrotation Xrotation Zrotation
									JOINT f_pinky.01.L
									{
										OFFSET 0.069986 -0.026156 0.003627
										CHANNELS 3 Xrotation Yrotation Zrotation
										JOINT f_pinky.02.L
										{
											OFFSET 0.018520 -0.012813 -0.016429
											CHANNELS 3 Xrotation Yrotation Zrotation
											JOINT f_pinky.03.L
											{
												OFFSET 0.013822 -0.009796 -0.014947
												CHANNELS 3 Xrotation Yrotation Zrotation
												End Site
												{
													OFFSET 0.007238 -0.006103 -0.011657
												}
											}
										}
									}
								}
							}
						}
					}
				}
				JOINT shoulder.R
				{
					OFFSET -0.016662 0.078957 0.057696
					CHANNELS 6 Xposition Yposition Zposition Yrotation Xrotation Zrotation
					JOINT upper_arm.R
					{
						OFFSET -0.176972 -0.020537 -0.095144
						CHANNELS 6 Xposition Yposition Zposition Xrotation Yrotation Zrotation
						JOINT forearm.R
						{
							OFFSET -0.247100 -0.135500 -0.061800
							CHANNELS 3 Xrotation Yrotation Zrotation
							JOINT hand.R
							{
								OFFSET -0.217000 -0.143000 0.039300
								CHANNELS 3 Xrotation Yrotation Zrotation
								JOINT palm.01.R
								{
									OFFSET -0.021773 -0.038278 0.012988
									CHANNELS 6 Xposition Yposition Zposition Yrotation Xrotation Zrotation
									JOINT f_index.01.R
									{
										OFFSET -0.053212 -0.044139 0.008249
										CHANNELS 3 Xrotation Yrotation Zrotation
										JOINT f_index.02.R
										{
											OFFSET -0.036049 -0.024835 -0.010634
											CHANNELS 3 Xrotation Yrotation Zrotation
											JOINT f_index.03.R
											{
												OFFSET -0.021371 -0.014881 -0.010866
												CHANNELS 3 Xrotation Yrotation Zrotation
												End Site
												{
													OFFSET -0.015584 -0.009883 -0.013422
												}
											}
										}
									}
									JOINT thumb.01.R
									{
										OFFSET 0.009113 -0.002381 -0.024211
										CHANNELS 6 Xposition Yposition Zposition Xrotation Yrotation Zrotation
										JOINT thumb.02.R
										{
											OFFSET -0.019694 -0.035097 -0.011088
											CHANNELS 3 Xrotation Yrotation Zrotation
											JOINT thumb.03.R
											{
												OFFSET -0.024867 -0.021762 -0.005168
												CHANNELS 3 Xrotation Yrotation Zrotation
												End Site
												{
													OFFSET -0.016120 -0.013036 -0.001565
												}
											}
										}
									}
								}
								JOINT palm.02.R
								{
									OFFSET -0.032828 -0.025095 0.012286
									CHANNELS 6 Xposition Yposition Zposition Yrotation Xrotation Zrotation
									JOINT f_middle.01.R
									{
										OFFSET -0.055721 -0.038472 0.008040
										CHANNELS 3 Xrotation Yrotation Zrotation
										JOINT f_middle.02.R
										{
											OFFSET -0.038101 -0.027593 -0.015557
											CHANNELS 3 Xrotation Yrotation Zrotation
											JOINT f_middle.03.R
											{
												OFFSET -0.021730 -0.016530 -0.017054
												CHANNELS 3 Xrotation Yrotation Zrotation
												End Site
												{
													OFFSET -0.014096 -0.010608 -0.014293
												}
											}
										}
									}
								}
								JOINT palm.03.R
								{
									OFFSET -0.039192 -0.011488 0.008390
									CHANNELS 6 Xposition Yposition Zposition Yrotation Xrotation Zrotation
									JOINT f_ring.01.R
									{
										OFFSET -0.061839 -0.031387 0.007876
										CHANNELS 3 Xrotation Yrotation Zrotation
										JOINT f_ring.02.R
										{
											OFFSET -0.033068 -0.023437 -0.019125
											CHANNELS 3 Xrotation Yrotation Zrotation
											JOINT f_ring.03.R
											{
												OFFSET -0.021371 -0.015393 -0.017822
												CHANNELS 3 Xrotation Yrotation Zrotation
												End Site
												{
													OFFSET -0.008654 -0.007321 -0.014684
												}
											}
										}
									}
								}
								JOINT palm.04.R
								{
									OFFSET -0.043421 0.002443 0.002845
									CHANNELS 6 Xposition Yposition Zposition Yrotation Xrotation Zrotation
									JOINT f_pinky.01.R
									{
										OFFSET -0.069983 -0.026169 0.003599
										CHANNELS 3 Xrotation Yrotation Zrotation
										JOINT f_pinky.02.R
										{
											OFFSET -0.018501 -0.012842 -0.016428
											CHANNELS 3 Xrotation Yrotation Zrotation
											JOINT f_pinky.03.R
											{
												OFFSET -0.013806 -0.009821 -0.014946
												CHANNELS 3 Xrotation Yrotation Zrotation
												End Site
												{
													OFFSET -0.007226 -0.006121 -0.011655
												}
											}
										}
									}
								}
							}
						}
					}
				}
			}
		}
	}
	JOINT pelvis.L
	{
		OFFSET 0.000000 0.000000 0.000000
		CHANNELS 6 Xposition Yposition Zposition Xrotation Yrotation Zrotation
		JOINT thigh.L
		{
			OFFSET 0.101675 0.001054 -0.000000
			CHANNELS 3 Xrotation Yrotation Zrotation
			JOINT shin.L
			{
				OFFSET 0.000000 -0.534800 0.041000
				CHANNELS 3 Xrotation Yrotation Zrotation
				JOINT foot.L
				{
					OFFSET 0.000000 -0.452000 -0.044800
					CHANNELS 3 Xrotation Yrotation Zrotation
					JOINT toe.L
					{
						OFFSET -0.000000 -0.068500 0.109600
						CHANNELS 3 Xrotation Yrotation Zrotation
						End Site
						{
							OFFSET -0.000000 0.000000 0.067200
						}
					}
				}
				JOINT heel.L
				{
					OFFSET 0.000000 -0.452000 -0.044800
					CHANNELS 3 Xrotation Yrotation Zrotation
					JOINT heel.02.L
					{
						OFFSET -0.038000 -0.085200 0.016200
						CHANNELS 6 Xposition Yposition Zposition Xrotation Yrotation Zrotation
						End Site
						{
							OFFSET 0.080000 -0.000000 0.000000
						}
					}
				}
			}
		}
	}
	JOINT pelvis.R
	{
		OFFSET 0.000000 0.000000 0.000000
		CHANNELS 6 Xposition Yposition Zposition Xrotation Yrotation Zrotation
		JOINT thigh.R
		{
			OFFSET -0.094325 0.001054 0.000000
			CHANNELS 3 Xrotation Yrotation Zrotation
			JOINT shin.R
			{
				OFFSET 0.000000 -0.534800 0.041000
				CHANNELS 3 Xrotation Yrotation Zrotation
				JOINT foot.R
				{
					OFFSET 0.000000 -0.452000 -0.044800
					CHANNELS 3 Xrotation Yrotation Zrotation
					JOINT toe.R
					{
						OFFSET -0.000000 -0.068500 0.109600
						CHANNELS 3 Xrotation Yrotation Zrotation
						End Site
						{
							OFFSET -0.000000 0.000000 0.067200
						}
					}
				}
				JOINT heel.R
				{
					OFFSET 0.000000 -0.452000 -0.044800
					CHANNELS 3 Xrotation Yrotation Zrotation
					JOINT heel.02.R
					{
						OFFSET 0.038000 -0.085200 0.016200
						CHANNELS 6 Xposition Yposition Zposition Xrotation Yrotation Zrotation
						End Site
						{
							OFFSET -0.080000 0.000000 -0.000000
						}
					}
				}
			}
		}
	}
}
MOTION
Frames: 4
Frame Time: 0.041667
-0.003675 0.299928 -0.021708 0.000000 -0.000000 0.000000 -0.000001 0.000000 0.000000 -0.000000 0.000000 0.000000 -0.000000 0.000000 0.000000 -0.000000 -0.000000 -0.000000 0.000924 0.155147 0.009274 -0.000001 -0.000000 -0.000000 0.019937 0.078966 0.057518 0.000001 0.000001 -0.000005 0.177024 -0.020465 -0.095062 -0.000006 -0.000003 0.000015 -0.000009 -0.000004 -0.000009 -0.000000 0.000000 0.000001 0.021770 -0.038291 0.012954 0.000001 -0.000001 0.000001 -0.000001 -0.000001 -0.000002 -0.000001 -0.000000 0.000007 -0.000000 0.000000 0.000003 -0.009090 -0.002348 -0.024224 -0.000002 0.000001 0.000001 0.000001 -0.000001 0.000001 -0.000000 0.000000 -0.000001 0.032823 -0.025104 0.012281 0.000000 -0.000000 0.000000 0.000001 0.000004 -0.000003 -0.000001 -0.000000 -0.000000 -0.000001 -0.000003 0.000003 0.039230 -0.011402 0.008390 -0.000000 -0.000000 0.000008 0.000001 0.000001 -0.000000 -0.000001 0.000003 -0.000001 0.000002 0.000002 -0.000000 0.043417 0.002450 0.002889 -0.000000 0.000001 0.000002 -0.000001 -0.000003 0.000001 -0.000000 0.000003 -0.000000 -0.000000 -0.000003 0.000001 -0.016662 0.078956 0.057696 -0.000001 0.000002 0.000011 -0.176972 -0.020537 -0.095144 0.000001 -0.000003 -0.000005 -0.000006 0.000005 -0.000014 -0.000001 -0.000000 0.000000 -0.021773 -0.038278 0.012988 0.000000 -0.000001 -0.000003 -0.000001 0.000001 -0.000003 -0.000001 -0.000000 0.000001 0.000001 0.000002 0.000007 0.009113 -0.002381 -0.024211 0.000002 -0.000001 0.000004 -0.000000 0.000001 0.000002 0.000000 0.000000 -0.000003 -0.032828 -0.025095 0.012286 0.000001 -0.000001 -0.000001 -0.000001 0.000003 -0.000003 -0.000002 0.000004 -0.000001 0.000001 -0.000002 -0.000000 -0.039192 -0.011488 0.008390 0.000000 0.000000 0.000001 -0.000000 0.000003 -0.000003 -0.000001 0.000001 0.000002 -0.000001 0.000000 -0.000003 -0.043421 0.002443 0.002844 -0.000000 -0.000001 0.000000 -0.000007 0.000003 -0.000002 -0.000003 -0.000000 -0.000000 0.000001 -0.000000 0.000001 -0.000000 0.000000 -0.000000 -0.000001 -0.000000 0.000001 0.000009 -0.000202 0.000014 -0.000026 0.000202 -0.000015 0.000000 -0.000000 -0.000000 0.000002 -0.000000 -0.000000 0.000000 0.000000 -0.000000 -0.038000 -0.085200 0.016200 0.000000 0.000000 0.000000 0.000000 -0.000000 -0.000000 -0.000001 0.000000 -0.000004 0.000008 -0.000013 0.000005 -0.000012 0.000013 -0.000001 -0.000003 -0.000000 -0.000000 0.000000 -0.000000 -0.000000 0.000002 -0.000000 -0.000000 0.038000 -0.085200 0.016200 0.000002 -0.000000 0.000000 
-0.009888 0.275913 -0.018507 7.790811 54.105856 -3.638258 -0.000001 -0.000002 -0.000000 0.000000 0.000000 0.000000 -0.000000 -0.000003 -0.000000 -0.000000 -0.000003 0.000000 0.000924 0.155147 0.009274 10.211739 -0.012754 -0.314100 0.019937 0.078966 0.057518 15.819664 5.499441 27.311037 0.177024 -0.020465 -0.095062 -47.944745 1.022229 -43.717934 26.990505 39.975403 152.500789 -0.000001 -0.000001 -0.000002 0.021770 -0.038291 0.012954 0.000001 0.000000 -0.000002 -0.000001 -0.000001 0.000007 -0.000000 -0.000001 0.000005 0.000003 0.000004 -0.000000 -0.009090 -0.002348 -0.024224 0.000001 -0.000002 0.000006 -0.000001 0.000001 0.000001 -0.000001 -0.000001 0.000001 0.032823 -0.025104 0.012281 -0.000001 0.000001 0.000002 -0.000000 0.000000 -0.000002 -0.000003 -0.000001 0.000003 -0.000001 -0.000001 0.000006 0.039230 -0.011402 0.008390 -0.000000 -0.000000 0.000008 0.000002 -0.000001 -0.000004 -0.000001 0.000005 0.000001 -0.000001 -0.000002 0.000003 0.043417 0.002450 0.002889 0.000001 0.000001 0.000003 -0.000005 -0.000007 -0.000000 -0.000001 0.000004 0.000005 -0.000002 0.000002 0.000004 -0.016662 0.078957 0.057696 23.314356 8.443821 -49.621003 -0.176972 -0.020537 -0.095144 -70.214290 24.505711 33.983524 31.568130 14.032301 -93.623910 -0.000002 -0.000002 -0.000001 -0.021773 -0.038278 0.012988 0.000000 0.000001 -0.000003 -0.000004 0.000001 -0.000001 0.000003 -0.000001 -0.000004 0.000002 0.000005 0.000003 0.009114 -0.002381 -0.024211 -0.000002 0.000000 0.000003 0.000001 -0.000000 -0.000003 -0.000002 -0.000003 0.000001 -0.032829 -0.025095 0.012286 0.000001 0.000003 -0.000003 -0.000002 0.000003 -0.000003 0.000002 -0.000001 -0.000001 -0.000001 0.000006 -0.000005 -0.039192 -0.011488 0.008390 0.000001 0.000004 -0.000000 -0.000002 0.000003 0.000000 -0.000000 0.000000 0.000002 0.000002 0.000002 -0.000003 -0.043421 0.002443 0.002845 0.000002 0.000001 -0.000001 -0.000004 0.000002 -0.000001 -0.000001 -0.000006 -0.000003 -0.000000 0.000000 -0.000003 -0.000000 0.000000 -0.000000 -1.571966 -0.480012 4.985013 -45.833909 -0.255682 -0.960286 70.575102 -1.020130 10.351763 0.000003 -0.000003 0.000002 0.000002 -0.000001 0.000001 0.000002 -0.000003 0.000003 -0.038000 -0.085200 0.016200 0.000002 -0.000003 0.000004 -0.000000 0.000000 -0.000000 -1.552560 -0.478116 6.219358 -3.128737 0.121122 1.044983 29.519777 -0.328429 3.316053 -0.000002 -0.000002 0.000002 -0.000000 -0.000001 0.000000 0.000003 0.000001 0.000003 0.038000 -0.085200 0.016200 -0.000006 -0.000003 0.000000 
-0.011698 0.274041 -0.019388 7.966167 56.037522 -2.784031 -0.000000 0.000001 -0.000001 -0.000000 0.000004 -0.000001 0.000000 -0.000003 0.000001 0.000001 -0.000004 0.000001 0.000924 0.155147 0.009274 12.622632 -0.017149 4.663682 0.019937 0.078966 0.057518 12.080184 4.679839 28.075043 0.177024 -0.020465 -0.095062 -53.771320 6.302382 -48.925895 19.396819 47.726988 165.902604 -0.000002 -0.000000 -0.000002 0.021770 -0.038291 0.012954 0.000001 -0.000000 -0.000004 -0.000003 -0.000000 0.000005 -0.000002 0.000003 0.000007 -0.000001 0.000002 0.000002 -0.009090 -0.002348 -0.024223 -0.000001 -0.000002 0.000001 -0.000001 -0.000001 0.000001 0.000000 0.000000 0.000003 0.032823 -0.025104 0.012281 0.000001 -0.000000 -0.000003 -0.000000 0.000002 -0.000005 0.000001 -0.000003 0.000001 -0.000001 0.000001 0.000006 0.039230 -0.011402 0.008390 0.000000 -0.000000 0.000004 -0.000002 -0.000000 0.000001 0.000000 0.000005 -0.000001 0.000002 0.000001 0.000003 0.043417 0.002450 0.002889 -0.000000 0.000000 -0.000007 -0.000003 -0.000004 -0.000004 -0.000003 0.000005 0.000001 0.000004 0.000002 -0.000003 -0.016662 0.078957 0.057696 22.030294 7.800434 -48.452846 -0.176972 -0.020537 -0.095144 -87.273514 -6.257725 42.998783 -54.958588 52.937320 18.175953 0.000004 0.000002 0.000003 -0.021773 -0.038278 0.012988 -0.000003 -0.000000 -0.000002 0.000003 0.000003 0.000002 0.000003 0.000001 -0.000004 -0.000002 0.000004 0.000003 0.009114 -0.002381 -0.024211 0.000001 -0.000000 0.000004 -0.000002 -0.000001 -0.000001 0.000005 0.000001 -0.000006 -0.032828 -0.025095 0.012286 -0.000001 0.000001 -0.000001 0.000001 0.000002 -0.000001 -0.000001 -0.000004 0.000003 -0.000003 0.000001 -0.000004 -0.039192 -0.011488 0.008390 -0.000003 0.000002 -0.000000 -0.000001 0.000003 -0.000003 0.000000 0.000000 0.000002 0.000000 -0.000003 -0.000002 -0.043421 0.002443 0.002844 -0.000001 0.000001 0.000000 0.000001 0.000004 -0.000002 0.000003 -0.000002 -0.000002 0.000001 0.000000 0.000004 -0.000000 0.000000 -0.000000 -1.622981 -0.473067 4.838254 -54.073098 -0.276354 -0.890690 81.544802 -1.186875 12.067619 0.000003 0.000002 -0.000004 -0.000002 0.000004 0.000002 0.000002 0.000002 -0.000002 -0.038000 -0.085200 0.016200 0.000002 0.000000 -0.000003 0.000000 0.000000 -0.000000 -1.602497 -0.471126 6.072608 -4.201950 0.145339 1.274972 31.332250 -0.321396 3.245076 -0.000002 0.000002 -0.000000 -0.000001 -0.000002 0.000000 0.000002 0.000001 -0.000002 0.038000 -0.085200 0.016200 -0.000004 -0.000005 0.000002 
-0.015864 0.272999 -0.023516 6.148255 52.499897 -4.278732 0.000000 -0.000005 0.000000 0.000000 -0.000003 0.000000 0.000000 0.000005 -0.000001 -0.000000 0.000007 0.000000 0.000924 0.155148 0.009274 22.755381 -0.024061 -2.334670 0.019937 0.078966 0.057518 8.779290 3.593535 28.051537 0.177024 -0.020465 -0.095062 -59.875248 4.474649 -46.557120 46.012771 50.925894 145.205901 -0.000002 0.000001 0.000001 0.021770 -0.038291 0.012954 -0.000001 0.000000 -0.000002 -0.000002 -0.000001 -0.000000 -0.000002 -0.000002 0.000006 -0.000000 0.000003 -0.000002 -0.009090 -0.002348 -0.024224 -0.000001 0.000000 -0.000001 -0.000000 0.000001 0.000001 -0.000001 0.000001 0.000001 0.032823 -0.025104 0.012281 -0.000001 0.000002 0.000002 0.000001 0.000003 0.000000 -0.000004 -0.000000 -0.000000 -0.000000 0.000001 0.000001 0.039230 -0.011402 0.008390 0.000001 -0.000001 0.000004 0.000001 0.000002 -0.000002 0.000001 0.000003 0.000001 -0.000000 -0.000003 0.000003 0.043417 0.002450 0.002889 -0.000002 0.000001 -0.000005 -0.000000 -0.000004 -0.000004 -0.000002 -0.000000 0.000001 -0.000002 0.000000 -0.000001 -0.016662 0.078956 0.057696 18.057611 6.043809 -44.046568 -0.176972 -0.020537 -0.095144 -79.063538 -11.369870 46.882405 -52.795586 38.701539 24.739837 -0.000007 0.000004 -0.000002 -0.021773 -0.038278 0.012988 -0.000002 -0.000002 -0.000002 -0.000003 -0.000001 0.000002 -0.000003 0.000003 -0.000007 0.000001 0.000003 -0.000000 0.009114 -0.002381 -0.024212 -0.000004 0.000000 -0.000001 -0.000003 -0.000003 0.000000 0.000001 0.000000 0.000003 -0.032828 -0.025095 0.012286 -0.000001 0.000002 -0.000005 0.000004 0.000003 -0.000003 0.000003 -0.000001 -0.000001 -0.000003 0.000005 -0.000006 -0.039192 -0.011488 0.008390 -0.000002 -0.000000 0.000001 0.000000 0.000004 -0.000002 -0.000004 -0.000003 -0.000002 -0.000004 -0.000003 -0.000002 -0.043421 0.002442 0.002845 -0.000003 -0.000001 -0.000001 -0.000005 0.000005 -0.000001 -0.000000 0.000001 -0.000002 0.000001 0.000005 0.000001 -0.000000 -0.000000 -0.000000 -1.694673 -0.915569 10.046561 -70.660438 -0.176970 0.980173 78.270696 -0.383531 3.874811 -0.000003 0.000003 0.000000 0.000001 -0.000002 0.000002 0.000002 -0.000000 -0.000000 -0.038000 -0.085200 0.016200 -0.000001 -0.000003 -0.000001 0.000000 -0.000000 0.000000 -1.686309 -0.913993 11.280866 -1.984768 0.163027 1.632089 23.148032 0.025629 -0.257963 0.000000 -0.000004 0.000002 -0.000004 -0.000001 0.000002 0.000007 -0.000002 0.000002 0.038000 -0.085200 0.016200 0.000001 -0.000001 0.000002 
